<?xml version="1.0" ?><svg viewBox="0 0 64 64" xmlns="http://www.w3.org/2000/svg"><defs><style>.cls-1{fill:#dbeffc;}.cls-2{fill:#4c241d;}.cls-3{fill:none;}.cls-3,.cls-4,.cls-5,.cls-6{stroke:#4c241d;stroke-linecap:round;stroke-linejoin:round;stroke-width:2px;}.cls-4{fill:#ffce56;}.cls-5{fill:#c1dbdc;}.cls-6{fill:#b5a19c;}</style></defs><g id="calculate"><circle class="cls-1" cx="27" cy="26" r="23"/><circle class="cls-2" cx="16.3829" cy="5.3776" r="1.0691"/><line class="cls-3" x1="8" x2="11" y1="10" y2="13"/><line class="cls-3" x1="11" x2="8" y1="10" y2="13"/><rect class="cls-4" height="50" rx="3.2164" width="34" x="16" y="11"/><rect class="cls-5" height="12" width="28" x="19" y="14"/><rect class="cls-6" height="13" width="6" x="40" y="45"/><rect class="cls-6" height="5" width="6" x="40" y="37"/><rect class="cls-6" height="5" width="6" x="40" y="29"/><rect class="cls-6" height="5" width="6" x="30" y="37"/><rect class="cls-6" height="5" width="6" x="30" y="45"/><rect class="cls-6" height="5" width="6" x="30" y="53"/><rect class="cls-6" height="5" width="6" x="30" y="29"/><rect class="cls-6" height="5" width="6" x="20" y="37"/><rect class="cls-6" height="5" width="6" x="20" y="45"/><rect class="cls-6" height="5" width="6" x="20" y="53"/><rect class="cls-6" height="5" width="6" x="20" y="29"/><line class="cls-3" x1="43.0301" x2="38.0301" y1="17.9699" y2="22.9699"/><circle class="cls-2" cx="38.53" cy="18.47" r="1.1323"/><circle class="cls-2" cx="42.53" cy="22.47" r="1.1323"/><polyline class="cls-3" points="27 18 30 18 28 23"/><rect class="cls-3" height="5" rx="1.5" width="3" x="32" y="18"/><line class="cls-3" x1="23" x2="25" y1="21" y2="21"/></g></svg>