<?xml version="1.0" encoding="iso-8859-1"?>
<!-- Generator: Adobe Illustrator 19.0.0, SVG Export Plug-In . SVG Version: 6.00 Build 0)  -->
<svg version="1.1" id="Capa_1" xmlns="http://www.w3.org/2000/svg" xmlns:xlink="http://www.w3.org/1999/xlink" x="0px" y="0px"
	 viewBox="0 0 490 490" style="enable-background:new 0 0 490 490;" xml:space="preserve">
<g>
	<path d="M487.298,238.615l-49.96-54.232c-1.935-2.094-4.656-3.29-7.507-3.29h-83.256c-5.638,0-10.208,4.566-10.208,10.208v106.36
		h-16.803V67.855c0-5.644-4.571-10.209-10.208-10.209H10.208C4.57,57.646,0,62.211,0,67.855v309.948
		c0,5.642,4.57,10.208,10.208,10.208h32.28c4.795,25.213,26.987,44.342,53.579,44.342c26.592,0,48.784-19.128,53.579-44.342h209.959
		c4.795,25.213,26.987,44.342,53.579,44.342c26.591,0,48.783-19.128,53.578-44.342h13.03c5.637,0,10.208-4.566,10.208-10.208
		V245.533C490,242.972,489.037,240.499,487.298,238.615z M20.417,78.063h278.73v219.599H20.417V78.063z M20.417,318.078h315.95
		v49.517H149.645c-4.795-25.213-26.987-44.343-53.579-44.343c-26.591,0-48.784,19.129-53.579,44.343H20.417V318.078z
		 M96.067,411.937c-18.822,0-34.134-15.313-34.134-34.134c0-18.822,15.313-34.135,34.134-34.135s34.134,15.313,34.134,34.135
		C130.201,396.624,114.888,411.937,96.067,411.937z M413.183,411.937c-18.822,0-34.135-15.313-34.135-34.134
		c0-18.822,15.313-34.135,34.135-34.135c18.798,0,34.095,15.276,34.132,34.067c0,0.022-0.003,0.044-0.003,0.067
		c0,0.023,0.003,0.045,0.003,0.068C447.278,396.661,431.982,411.937,413.183,411.937z M469.583,367.595h-2.822
		c-4.795-25.213-26.987-44.343-53.578-44.343c-26.592,0-48.784,19.129-53.579,44.343h-2.821V307.87V201.509h68.572l44.228,48.012
		V367.595z"/>
	<path d="M415.222,212.855h-37.1c-5.637,0-10.208,4.565-10.208,10.209v59.585c0,5.642,4.571,10.208,10.208,10.208h62.082
		c5.638,0,10.208-4.566,10.208-10.208v-30.645c0-2.452-0.882-4.815-2.482-6.669l-24.983-28.941
		C421.009,214.15,418.187,212.855,415.222,212.855z M429.995,272.44H388.33v-39.168h22.216l19.449,22.53V272.44z"/>
	<polygon points="91.26,174.139 97.723,174.139 97.723,158.365 114.702,158.365 114.702,152.397 97.723,152.397 97.723,141.877 
		116.73,141.877 116.784,135.855 91.26,135.855 	"/>
	<path d="M146.635,160.229c5.514-1.646,8.273-5.626,8.273-11.942c0-4.347-1.261-7.502-3.78-9.476
		c-2.518-1.97-6.704-2.956-12.543-2.956h-14.242v38.284h6.463v-12.872h8.492l9.147,12.872h8.215L146.635,160.229z M138.857,155.41
		h-8.05v-13.692h8.215c3.468,0,5.879,0.463,7.23,1.395c1.35,0.932,2.028,2.648,2.028,5.149c0,2.5-0.66,4.319-1.975,5.451
		C144.995,154.844,142.507,155.41,138.857,155.41z"/>
	<polygon points="191.767,168.06 170.679,168.06 170.679,157.817 189.026,157.817 189.026,152.067 170.679,152.067 170.679,141.934 
		191.107,141.934 191.107,135.855 164.215,135.855 164.215,174.139 191.767,174.139 	"/>
	<polygon points="227.592,168.06 206.503,168.06 206.503,157.817 224.85,157.817 224.85,152.067 206.503,152.067 206.503,141.934 
		226.932,141.934 226.932,135.855 200.04,135.855 200.04,174.139 227.592,174.139 	"/>
	<path d="M56.313,201.585H43.168v38.285h12.708c7.373,0,12.851-1.734,16.43-5.202c3.579-3.472,5.367-8.179,5.367-14.134
		c0-5.951-1.841-10.595-5.532-13.939C68.456,203.252,63.178,201.585,56.313,201.585z M67.462,230.478
		c-2.465,2.206-6.018,3.311-10.653,3.311h-7.176v-26.236h6.463c10.043,0,15.062,4.381,15.062,13.145
		C71.157,225.009,69.927,228.267,67.462,230.478z"/>
	<polygon points="92.464,223.547 110.811,223.547 110.811,217.797 92.464,217.797 92.464,207.665 112.892,207.665 112.892,201.585 
		86,201.585 86,239.87 113.552,239.87 113.552,233.79 92.464,233.79 	"/>
	<polygon points="128.284,201.585 121.82,201.585 121.82,239.87 145.757,239.87 145.757,233.736 128.284,233.736 	"/>
	<rect x="152.822" y="201.585" width="6.463" height="38.285"/>
	<polygon points="183.77,230.175 171.994,201.585 164.764,201.585 180.155,239.87 187.385,239.87 202.777,201.585 195.547,201.585 	
		"/>
	<polygon points="214.718,223.547 233.065,223.547 233.065,217.797 214.718,217.797 214.718,207.665 235.147,207.665 
		235.147,201.585 208.255,201.585 208.255,239.87 235.807,239.87 235.807,233.79 214.718,233.79 	"/>
	<path d="M274.64,214.016c0-4.346-1.261-7.502-3.779-9.477c-2.518-1.97-6.705-2.955-12.544-2.955h-14.242v38.285h6.464v-12.874
		h8.491l9.147,12.874h8.215l-10.025-13.912C271.882,224.314,274.64,220.332,274.64,214.016z M258.589,221.14h-8.05v-13.693h8.215
		c3.468,0,5.88,0.463,7.231,1.395c1.35,0.931,2.027,2.648,2.027,5.148c0,2.501-0.66,4.319-1.974,5.451
		C264.727,220.573,262.24,221.14,258.589,221.14z"/>
</g>
<g>
</g>
<g>
</g>
<g>
</g>
<g>
</g>
<g>
</g>
<g>
</g>
<g>
</g>
<g>
</g>
<g>
</g>
<g>
</g>
<g>
</g>
<g>
</g>
<g>
</g>
<g>
</g>
<g>
</g>
</svg>
