<?xml version="1.0" encoding="UTF-8" standalone="no"?>
<!-- Created with Inkscape (http://www.inkscape.org/) -->

<svg
   xmlns:dc="http://purl.org/dc/elements/1.1/"
   xmlns:cc="http://creativecommons.org/ns#"
   xmlns:rdf="http://www.w3.org/1999/02/22-rdf-syntax-ns#"
   xmlns:svg="http://www.w3.org/2000/svg"
   xmlns="http://www.w3.org/2000/svg"
   xmlns:sodipodi="http://sodipodi.sourceforge.net/DTD/sodipodi-0.dtd"
   xmlns:inkscape="http://www.inkscape.org/namespaces/inkscape"
   width="48pt"
   height="48pt"
   viewBox="0 0 16.933334 16.933333"
   version="1.1"
   id="svg979"
   inkscape:version="0.92.4 (5da689c313, 2019-01-14)"
   sodipodi:docname="25 - Business Scedule.svg"
   inkscape:export-filename="E:\TR Design Studio Creative\Project Design\TR Creative Design\Icon Design\Project Hiring\Icon Icons\003 - Business And Finance\Line\Export\25 - Business Scedule.png"
   inkscape:export-xdpi="768"
   inkscape:export-ydpi="768">
  <defs
     id="defs973" />
  <sodipodi:namedview
     id="base"
     pagecolor="#ffffff"
     bordercolor="#666666"
     borderopacity="1.0"
     inkscape:pageopacity="0.0"
     inkscape:pageshadow="2"
     inkscape:zoom="8.546875"
     inkscape:cx="32"
     inkscape:cy="32"
     inkscape:document-units="pt"
     inkscape:current-layer="layer1"
     showgrid="false"
     units="pt"
     inkscape:window-width="1366"
     inkscape:window-height="716"
     inkscape:window-x="-8"
     inkscape:window-y="-8"
     inkscape:window-maximized="1"
     inkscape:snap-bbox="true"
     inkscape:bbox-nodes="true"
     inkscape:snap-nodes="false"
     showguides="false">
    <inkscape:grid
       type="xygrid"
       id="grid1526" />
    <sodipodi:guide
       position="0.97013909,15.963209"
       orientation="56.666615,0"
       id="guide1528"
       inkscape:locked="false" />
    <sodipodi:guide
       position="0.97013909,0.97016731"
       orientation="0,56.666667"
       id="guide1530"
       inkscape:locked="false" />
    <sodipodi:guide
       position="15.963195,0.97016731"
       orientation="-56.666615,0"
       id="guide1532"
       inkscape:locked="false" />
    <sodipodi:guide
       position="15.963195,15.963209"
       orientation="0,-56.666667"
       id="guide1534"
       inkscape:locked="false" />
  </sodipodi:namedview>
  <metadata
     id="metadata976">
    <rdf:RDF>
      <cc:Work
         rdf:about="">
        <dc:format>image/svg+xml</dc:format>
        <dc:type
           rdf:resource="http://purl.org/dc/dcmitype/StillImage" />
        <dc:title></dc:title>
      </cc:Work>
    </rdf:RDF>
  </metadata>
  <g
     inkscape:label="Layer 1"
     inkscape:groupmode="layer"
     id="layer1"
     transform="translate(0,-280.06668)">
    <path
       style="color:#000000;font-style:normal;font-variant:normal;font-weight:normal;font-stretch:normal;font-size:medium;line-height:normal;font-family:sans-serif;font-variant-ligatures:normal;font-variant-position:normal;font-variant-caps:normal;font-variant-numeric:normal;font-variant-alternates:normal;font-feature-settings:normal;text-indent:0;text-align:start;text-decoration:none;text-decoration-line:none;text-decoration-style:solid;text-decoration-color:#000000;letter-spacing:normal;word-spacing:normal;text-transform:none;writing-mode:lr-tb;direction:ltr;text-orientation:mixed;dominant-baseline:auto;baseline-shift:baseline;text-anchor:start;white-space:normal;shape-padding:0;clip-rule:nonzero;display:inline;overflow:visible;visibility:visible;opacity:1;isolation:auto;mix-blend-mode:normal;color-interpolation:sRGB;color-interpolation-filters:linearRGB;solid-color:#000000;solid-opacity:1;vector-effect:none;fill:#000000;fill-opacity:1;fill-rule:nonzero;stroke:none;stroke-width:0.529167;stroke-linecap:round;stroke-linejoin:round;stroke-miterlimit:1.5;stroke-dasharray:none;stroke-dashoffset:0;stroke-opacity:1;paint-order:markers fill stroke;color-rendering:auto;image-rendering:auto;shape-rendering:auto;text-rendering:auto;enable-background:accumulate"
       d="m 14.334922,295.37809 c 0.896107,0 1.628266,-0.73535 1.628266,-1.63146 v -9.77724 c 0,-0.8961 -0.732159,-1.6289 -1.628266,-1.6289 H 14.00774 v -0.16359 c 0,-0.62629 -0.514381,-1.14004 -1.140677,-1.14004 -0.626298,0 -1.140043,0.51375 -1.140043,1.14004 v 0.16359 h -0.652452 v -0.16359 c 0,-0.62629 -0.513745,-1.14004 -1.1400425,-1.14004 -0.6262974,0 -1.140678,0.51375 -1.140678,1.14004 v 0.16359 H 8.1420314 v -0.16359 c 0,-0.62629 -0.5137417,-1.14004 -1.1400391,-1.14004 -0.6263008,0 -1.1432268,0.51375 -1.1432268,1.14004 v 0.16359 H 5.2094981 v -0.16359 c 0,-0.62629 -0.5162904,-1.14004 -1.1425878,-1.14004 v -6e-5 c -0.6263007,0 -1.1406781,0.51375 -1.1406781,1.14005 v 0.19732 c -0.7410138,0.15248 -1.303632,0.81107 -1.303632,1.59516 v 6.90518 c -0.3771929,0.13598 -0.65245481,0.49485 -0.65245481,0.91599 v 1.63144 c 0,0.42112 0.27526191,0.78 0.65245481,0.91598 v 0.80204 c 0,0.48735 0.4025356,0.88989 0.8898788,0.88989 h 3.4354028 c 0.405234,0 0.7482457,-0.27772 0.8535988,-0.65176 2.5111473,0 5.0222944,0 7.5334414,0 z M 4.0669103,281.68862 c 0.2764645,0 0.4907718,0.21176 0.4907718,0.48823 v 0.16358 H 3.5780483 v -0.16358 c 0,-0.27647 0.2123942,-0.48823 0.488862,-0.48823 z m 2.935082,0 c 0.2764677,0 0.4882232,0.21176 0.4882232,0.48823 v 0.16358 H 6.5112204 v -0.16358 c 0,-0.27647 0.214304,-0.48823 0.4907719,-0.48823 z m 2.9325332,0 c 0.2764675,0 0.4882265,0.21176 0.4882265,0.48823 v 0.16358 H 9.4463023 v -0.16358 c 0,-0.27647 0.2117555,-0.48823 0.4882232,-0.48823 z m 2.9325375,0 c 0.276467,0 0.488225,0.21176 0.488225,0.48823 v 0.16358 h -0.976453 v -0.16358 c 0,-0.27647 0.211759,-0.48823 0.488228,-0.48823 z m -9.6136517,1.30427 h 1.3042708 v 0.65181 c 0,0.43464 0.651816,0.43464 0.651816,0 v -0.65181 h 2.2807174 v 0.65181 c 0,0.43464 0.6518159,0.43464 0.6518159,0 v -0.65181 h 2.2807206 v 0.65181 c 0,0.43464 0.651816,0.43464 0.651816,0 v -0.65181 h 2.28072 v 0.65181 c 0,0.43464 0.652452,0.43464 0.652452,0 v -0.65181 h 0.327182 c 0.543839,0 0.976449,0.4326 0.976449,0.97644 v 1.63146 H 2.2744162 v -1.63146 c 0,-0.54384 0.4351556,-0.97644 0.9789951,-0.97644 z m 3.8784324,1.30363 c -0.4247037,0.0296 -0.394404,0.66287 0.03119,0.65182 h 3.5843493 c 0.444027,0.01 0.444027,-0.66141 0,-0.65182 H 7.1630331 c -0.010396,-6.6e-4 -0.020792,-6.6e-4 -0.031189,0 z m -4.8574275,1.95609 H 15.311371 v 7.49396 c 0,0.54385 -0.43261,0.97901 -0.976449,0.97901 H 6.8383994 v -0.3883 c 0.3768898,-0.13614 0.6518161,-0.49444 0.6518161,-0.91534 v -1.63144 c 0,-0.11419 -0.023628,-0.22243 -0.060469,-0.32464 h 0.4500333 c 0.3193507,0 0.5868887,-0.26754 0.5868887,-0.58689 v -0.78168 c 0,-0.31933 -0.267538,-0.58752 -0.5868887,-0.58752 H 6.773472 c -0.3193507,0 -0.5875241,0.26819 -0.5875241,0.58752 v 0.71675 H 5.7702881 l -0.2527058,-0.75557 c -0.044751,-0.13205 -0.168664,-0.22119 -0.3080842,-0.22151 H 3.2534113 c -0.011209,-6.6e-4 -0.022521,-6.6e-4 -0.033735,0 -0.1277723,0.0128 -0.2356902,0.0996 -0.2762592,0.22151 l -0.250796,0.75557 H 2.2744162 Z m 1.5658837,0.64927 c -0.3193507,0 -0.5868886,0.26818 -0.5868886,0.58752 v 0.78167 c 0,0.31935 0.2675379,0.58688 0.5868886,0.58688 h 1.1069433 c 0.319354,0 0.5868886,-0.26753 0.5868886,-0.58688 v -0.78167 c 0,-0.31934 -0.2675346,-0.58752 -0.5868886,-0.58752 z m 5.8657087,0 c -0.319354,0 -0.5868886,0.26818 -0.5868886,0.58752 v 0.78167 c 0,0.31935 0.2675346,0.58688 0.5868886,0.58688 h 1.1088494 c 0.319357,0 0.584983,-0.26753 0.584983,-0.58688 v -0.78167 c 0,-0.31934 -0.265626,-0.58752 -0.584983,-0.58752 z m 2.9325374,0 c -0.319355,0 -0.58689,0.26818 -0.58689,0.58752 v 0.78167 c 0,0.31935 0.267535,0.58688 0.58689,0.58688 h 1.109484 c 0.319354,0 0.586892,-0.26753 0.586892,-0.58688 v -0.78167 c 0,-0.31934 -0.267538,-0.58752 -0.586892,-0.58752 z m -5.8026919,0.32526 c -0.3243404,-2.2e-4 -0.4499291,0.42186 -0.1782294,0.59899 l 0.082748,0.0554 -0.082748,0.0554 c -0.4034317,0.23131 -0.00762,0.8247 0.3609171,0.54106 l 0.3080842,-0.2056 0.308084,0.2056 c 0.3685303,0.28364 0.7643488,-0.30975 0.360917,-0.54106 l -0.082748,-0.0554 0.082748,-0.0554 c 0.2762592,-0.17977 0.1416626,-0.60912 -0.1877784,-0.59899 -0.061988,0.002 -0.122052,0.022 -0.1731386,0.0573 l -0.308084,0.20561 -0.3080842,-0.20561 c -0.053788,-0.037 -0.1174316,-0.0569 -0.1826877,-0.0573 z m -2.9306268,0.32718 h 0.9770886 v 0.65182 H 3.9052273 Z m 5.8657087,0 h 0.976449 v 0.65182 H 9.770936 Z m 2.932537,0 h 0.978995 v 0.65182 h -0.978995 z m -2.9974644,1.95545 c -0.319354,0 -0.5868886,0.26819 -0.5868886,0.58752 v 0.78168 c 0,0.31935 0.2675346,0.58689 0.5868886,0.58689 h 1.1088494 c 0.319357,0 0.584983,-0.26754 0.584983,-0.58689 v -0.78168 c 0,-0.31933 -0.265626,-0.58752 -0.584983,-0.58752 z m 2.9325374,0 c -0.319355,0 -0.58689,0.26819 -0.58689,0.58752 v 0.78168 c 0,0.31935 0.267535,0.58689 0.58689,0.58689 h 1.109484 c 0.319354,0 0.586892,-0.26754 0.586892,-0.58689 v -0.78168 c 0,-0.31933 -0.267538,-0.58752 -0.586892,-0.58752 z m -5.8001466,0.65245 h 0.976453 v 0.65182 h -0.976453 z m 2.9325366,0 h 0.976449 v 0.65182 H 9.770936 Z m 2.932537,0 h 0.978995 v 0.65182 h -0.978995 z m -9.2164509,0.32719 h 1.4869553 l 0.1075762,0.32463 H 3.3794465 Z m 3.0241983,0.97645 c 0.1861913,0 0.327179,0.13844 0.327179,0.32464 v 1.63144 c 0,0.18619 -0.1409877,0.32463 -0.327179,0.32463 H 5.5341318 c 0.00228,-0.18374 -0.1479101,-0.33295 -0.3316374,-0.32972 -0.1792429,0.004 -0.3222904,0.15047 -0.3201785,0.32972 H 3.5780483 c 0.00228,-0.18272 -0.1463588,-0.33149 -0.3290921,-0.32972 -0.1802402,10e-4 -0.3248261,0.14949 -0.322724,0.32972 H 1.9497793 c -0.1861913,0 -0.3271791,-0.13844 -0.3271791,-0.32463 v -1.63144 c 0,-0.18436 0.1386347,-0.32066 0.3220884,-0.32337 1.5186889,-0.002 3.0454734,-10e-4 4.5665318,-10e-4 z m -0.9770886,0.32464 c -0.4349698,0 -0.4349698,0.65244 0,0.65244 h 0.6518161 c 0.4349698,0 0.4349698,-0.65244 0,-0.65244 z m 7.1044142,0.32717 c -0.319355,0 -0.58689,0.26818 -0.58689,0.58753 v 0.78166 c 0,0.31936 0.267535,0.5869 0.58689,0.5869 h 1.109484 c 0.319354,0 0.586892,-0.26754 0.586892,-0.5869 v -0.78166 c 0,-0.31935 -0.267538,-0.58753 -0.586892,-0.58753 z m -2.8701553,0.32273 c -0.3288967,-0.004 -0.4563755,0.42594 -0.1782326,0.60153 l 0.080842,0.0541 -0.080842,0.0541 c -0.3707041,0.23891 -0.00326,0.79253 0.360917,0.5436 l 0.3087229,-0.20497 0.307448,0.20497 c 0.362403,0.24232 0.725866,-0.30129 0.363463,-0.5436 l -0.08148,-0.0541 0.08148,-0.0541 c 0.283132,-0.17809 0.146381,-0.61614 -0.187779,-0.60153 -0.06293,0.002 -0.123946,0.022 -0.175684,0.0579 l -0.307448,0.20497 -0.3087229,-0.20497 c -0.053713,-0.0372 -0.1173589,-0.0574 -0.1826844,-0.0579 z m 2.9350823,0.32973 h 0.978995 v 0.65181 h -0.978995 z m -10.4290568,1.62826 h 0.651816 c -0.00984,0.44429 0.6616748,0.44429 0.6518161,0 h 1.3042676 c 0.00942,0.42502 0.6423809,0.42502 0.6518159,0 h 0.6518161 v 0.74157 c 0,0.13764 -0.1004158,0.23807 -0.2380661,0.23807 H 2.512479 c -0.1376407,0 -0.2380628,-0.10039 -0.2380628,-0.23807 z"
       id="rect2057"
       inkscape:connector-curvature="0"
       sodipodi:nodetypes="cssscsssccsssccsssccsccscscsscsssccssccssssccssssccssssccssscssccssccssccsscssccssccccccccssccsscssssssccccccccccsssssssssssssssssssssssssssccccccccccccccccccccccccccccccsssssssssssssssssscccccccccccccccccccccsssccccccsssccssssssssssssssccccccccccccccccccccccccccssssc" />
  </g>
</svg>
