<?xml version="1.0" encoding="iso-8859-1"?>
<!-- Generator: Adobe Illustrator 22.0.1, SVG Export Plug-In . SVG Version: 6.00 Build 0)  -->
<svg version="1.1" id="Layer_1_1_" xmlns="http://www.w3.org/2000/svg" xmlns:xlink="http://www.w3.org/1999/xlink" x="0px" y="0px"
	 viewBox="0 0 64 64" style="enable-background:new 0 0 64 64;" xml:space="preserve">
<g id="Guide">
</g>
<path d="M54,38.694V3c0-0.552-0.447-1-1-1h-6h-5c-0.553,0-1,0.448-1,1v3h-3c-0.553,0-1,0.448-1,1v4c0,0.552,0.447,1,1,1h3v3
	c0,0.552,0.447,1,1,1h4v22.694c-4.746,1.68-8,6.224-8,11.306c0,6.617,5.383,12,12,12s12-5.383,12-12
	C62,44.918,58.746,40.374,54,38.694z M43,14v-3c0-0.552-0.447-1-1-1h-3V8h3c0.553,0,1-0.448,1-1V4h3v10H43z M50,60
	c-5.514,0-10-4.486-10-10c0-4.447,2.99-8.4,7.272-9.613C47.703,40.265,48,39.872,48,39.425V15V4h4v35.425
	c0,0.447,0.297,0.84,0.728,0.962C57.01,41.6,60,45.553,60,50C60,55.514,55.514,60,50,60z"/>
<path d="M26,2h-9h-6c-0.553,0-1,0.448-1,1v35.694C5.254,40.374,2,44.918,2,50c0,6.617,5.383,12,12,12s12-5.383,12-12
	c0-5.082-3.254-9.626-8-11.306V16h8c0.553,0,1-0.448,1-1v-4c0-0.552-0.447-1-1-1h-3V8h3c0.553,0,1-0.448,1-1V3
	C27,2.448,26.553,2,26,2z M24,50c0,5.514-4.486,10-10,10S4,55.514,4,50c0-4.447,2.99-8.4,7.272-9.613
	C11.703,40.265,12,39.872,12,39.425V4h4v11v24.425c0,0.447,0.297,0.84,0.728,0.962C21.01,41.6,24,45.553,24,50z M25,6h-3
	c-0.553,0-1,0.448-1,1v4c0,0.552,0.447,1,1,1h3v2h-7V4h7V6z"/>
<path d="M32,16c-3.309,0-6,2.691-6,6v3h-1c-0.553,0-1,0.448-1,1v14c0,0.552,0.447,1,1,1h14c0.553,0,1-0.448,1-1V26
	c0-0.552-0.447-1-1-1h-1v-3C38,18.691,35.309,16,32,16z M28,22c0-2.206,1.794-4,4-4s4,1.794,4,4v3h-8V22z M38,39H26V27h12V39z"/>
<path d="M31,34.816V37h2v-2.184c1.161-0.414,2-1.514,2-2.816c0-1.654-1.346-3-3-3s-3,1.346-3,3C29,33.302,29.839,34.402,31,34.816z
	 M32,31c0.552,0,1,0.449,1,1c0,0.551-0.448,1-1,1s-1-0.449-1-1S31.448,31,32,31z"/>
<path d="M14,51c-1.654,0-3,1.346-3,3s1.346,3,3,3s3-1.346,3-3S15.654,51,14,51z M14,55c-0.552,0-1-0.449-1-1s0.448-1,1-1
	s1,0.449,1,1S14.552,55,14,55z"/>
<path d="M50,51c-1.654,0-3,1.346-3,3s1.346,3,3,3s3-1.346,3-3S51.654,51,50,51z M50,55c-0.552,0-1-0.449-1-1s0.448-1,1-1
	s1,0.449,1,1S50.552,55,50,55z"/>
</svg>
